<svg xmlns="http://www.w3.org/2000/svg" viewBox="0 0 18 20"><path d="M9.9.9V.85a.9.9,0,0,0-1.8,0V.9A6.64,6.64,0,0,0,2.7,8.09c.23,1.09-.5,1.67-1.26,2.27A2.85,2.85,0,0,0,0,12.59,2.72,2.72,0,0,0,2.22,15.3,21.91,21.91,0,0,0,9,16.17a21.91,21.91,0,0,0,6.78-.87A2.75,2.75,0,0,0,18,12.59a2.84,2.84,0,0,0-1.46-2.23c-.75-.61-1.47-1.18-1.24-2.27A6.64,6.64,0,0,0,9.9.9Z" transform="translate(0)"/><path d="M5.78,17.19a.83.83,0,0,0-.18,1.19,4.42,4.42,0,0,0,6.84,0,.82.82,0,0,0-.18-1.19.94.94,0,0,0-1.26.17,2.56,2.56,0,0,1-4,0A.94.94,0,0,0,5.78,17.19Z" transform="translate(0)"/></svg>