<svg xmlns="http://www.w3.org/2000/svg" viewBox="0 0 18 20.12"><path d="M9,20.13A5.17,5.17,0,0,1,5.65,19,1,1,0,0,1,7,17.5H7a3.65,3.65,0,0,0,4.1,0,1,1,0,0,1,1.35.43,1,1,0,0,1-.1,1.07A5.17,5.17,0,0,1,9,20.13Z" transform="translate(0 -0.01)"/><path d="M9.9.91h0a.9.9,0,0,0-1.8,0h0A6.77,6.77,0,0,0,2.7,8.26c.23,1.12-.5,1.71-1.26,2.33A2.91,2.91,0,0,0,0,12.86a2.75,2.75,0,0,0,2.22,2.77A21.33,21.33,0,0,0,9,16.52a21.33,21.33,0,0,0,6.78-.89A2.78,2.78,0,0,0,18,12.86a2.91,2.91,0,0,0-1.46-2.28c-.75-.61-1.47-1.2-1.24-2.32A6.77,6.77,0,0,0,9.9.91ZM4.14,10.68A3.67,3.67,0,0,0,4.68,8,4.73,4.73,0,0,1,5.85,4.4a4,4,0,0,1,2.9-1.53h.5a4,4,0,0,1,2.9,1.53A4.73,4.73,0,0,1,13.32,8a3.65,3.65,0,0,0,.54,2.71,5.62,5.62,0,0,0,1.33,1.38h0c.81.66.79.74.78.77h0a.72.72,0,0,1-.13.49,1.51,1.51,0,0,1-.68.37h-.1l-.25.07c-.25.07-.63.17-1.15.27A24.38,24.38,0,0,1,9,14.52a24.86,24.86,0,0,1-4.64-.41c-.52-.1-.9-.2-1.15-.27L3,13.77H3a1.46,1.46,0,0,1-.68-.37A.72.72,0,0,1,2,12.86H2s-.11,0,.77-.75h0A6.2,6.2,0,0,0,4.14,10.68Z" transform="translate(0 -0.01)"/></svg>