<svg xmlns="http://www.w3.org/2000/svg" viewBox="0 0 30.13 20"><path d="M15,20a33.34,33.34,0,0,1-3.78-.16,6.59,6.59,0,0,1-2.29-.6A2.41,2.41,0,0,1,7.8,18a5.35,5.35,0,0,1-.3-2,5.35,5.35,0,0,1,.3-2,2.41,2.41,0,0,1,1.13-1.23,6.59,6.59,0,0,1,2.29-.6A33.34,33.34,0,0,1,15,12a33.34,33.34,0,0,1,3.78.16,6.36,6.36,0,0,1,2.29.61A2.36,2.36,0,0,1,22.2,14a5.35,5.35,0,0,1,.3,2,5.35,5.35,0,0,1-.3,2,2.41,2.41,0,0,1-1.13,1.23,6.59,6.59,0,0,1-2.29.6A33.34,33.34,0,0,1,15,20Zm0-6a31.38,31.38,0,0,0-3.54.15,5,5,0,0,0-1.59.38.41.41,0,0,0-.22.22A3.5,3.5,0,0,0,9.5,16a3.5,3.5,0,0,0,.15,1.25.41.41,0,0,0,.22.22,5,5,0,0,0,1.59.38A31.38,31.38,0,0,0,15,18a31.38,31.38,0,0,0,3.54-.15,4.8,4.8,0,0,0,1.58-.38c.17-.09.19-.14.23-.22A3.5,3.5,0,0,0,20.5,16a3.5,3.5,0,0,0-.15-1.25c0-.08-.06-.13-.23-.22a4.8,4.8,0,0,0-1.58-.38A31.38,31.38,0,0,0,15,14Z" transform="translate(0.06)"/><path d="M15,10a4.86,4.86,0,0,1-4.69-5A4.86,4.86,0,0,1,15,0a4.86,4.86,0,0,1,4.69,5A4.86,4.86,0,0,1,15,10Zm0-8a2.87,2.87,0,0,0-2.69,3A2.87,2.87,0,0,0,15,8a2.87,2.87,0,0,0,2.69-3A2.87,2.87,0,0,0,15,2Z" transform="translate(0.06)"/><path d="M21.56,10a1,1,0,0,1,0-2,1.93,1.93,0,0,0,1.82-2,1.93,1.93,0,0,0-1.82-2,1,1,0,0,1,0-2,3.93,3.93,0,0,1,3.82,4A3.93,3.93,0,0,1,21.56,10Z" transform="translate(0.06)"/><path d="M8.44,10A3.93,3.93,0,0,1,4.62,6,3.93,3.93,0,0,1,8.44,2a1,1,0,0,1,0,2A1.93,1.93,0,0,0,6.62,6,1.93,1.93,0,0,0,8.44,8a1,1,0,0,1,0,2Z" transform="translate(0.06)"/><path d="M24.94,19a1,1,0,1,1,0-2c2.71,0,3.12-.45,3.12-2s-.18-2-4.62-2a1,1,0,1,1,0-2c3.1,0,6.62,0,6.62,4S26.73,19,24.94,19Z" transform="translate(0.06)"/><path d="M5.06,19C3.27,19-.06,19-.06,15s3.52-4,6.62-4a1,1,0,0,1,0,2c-4.45,0-4.62.58-4.62,2s.41,2,3.12,2a1,1,0,0,1,0,2Z" transform="translate(0.06)"/></svg>