<svg xmlns="http://www.w3.org/2000/svg" viewBox="0 0 18 20"><path d="M9,20a44,44,0,0,1-4.53-.17,8.39,8.39,0,0,1-2.75-.63A2.61,2.61,0,0,1,.36,17.93,4.93,4.93,0,0,1,0,15.83a5,5,0,0,1,.36-2.1,2.65,2.65,0,0,1,1.36-1.27,8.94,8.94,0,0,1,2.75-.63C5.58,11.72,7,11.67,9,11.67s3.42.05,4.53.16a9,9,0,0,1,2.75.63,2.63,2.63,0,0,1,1.36,1.28A4.91,4.91,0,0,1,18,15.83a4.76,4.76,0,0,1-.37,2.1,2.52,2.52,0,0,1-1.35,1.27,8.46,8.46,0,0,1-2.75.63A44,44,0,0,1,9,20Zm0-6.33a43.23,43.23,0,0,0-4.33.16,7,7,0,0,0-2.11.45c-.31.14-.36.25-.39.32A2.94,2.94,0,0,0,2,15.83a3,3,0,0,0,.17,1.24c0,.07.08.18.39.32a7.35,7.35,0,0,0,2.11.45A43.23,43.23,0,0,0,9,18a43.23,43.23,0,0,0,4.33-.16,7.35,7.35,0,0,0,2.11-.45c.31-.14.36-.26.39-.32A3,3,0,0,0,16,15.83a2.94,2.94,0,0,0-.17-1.23c0-.07-.08-.18-.39-.32a7,7,0,0,0-2.11-.45A43.23,43.23,0,0,0,9,13.67Z"/><path d="M9,10A5,5,0,0,1,4.09,5,5,5,0,0,1,9,0a5,5,0,0,1,4.91,5A5,5,0,0,1,9,10ZM9,2A3,3,0,0,0,6.09,5,3,3,0,0,0,9,8a3,3,0,0,0,2.91-3A3,3,0,0,0,9,2Z"/></svg>