<svg xmlns="http://www.w3.org/2000/svg" viewBox="0 0 157.17 183.28"><polygon points="46.89 83.32 46.89 18.98 24.89 32.85 24.89 95.94 54.22 113.6 76.22 99.72 46.89 83.32" style="fill:#6b6bcc"/><polygon points="110.44 50.52 110.44 83.32 57.89 116.12 81.11 130 134.89 95.94 134.89 63.13 110.44 50.52" style="fill:#6b6bcc"/><polygon points="110.44 18.98 110.44 18.98 100.67 13.16 100.67 13.13 78.89 0 51.01 17 51.01 43.13 78.67 27.81 100.67 39.16 100.67 32.85 110.44 32.85 110.44 45.47 134.89 58.09 134.89 32.85 110.44 18.98" style="fill:#6b6bcc"/><path d="M47.61,152.56A9.13,9.13,0,0,1,47,156a5.05,5.05,0,0,1-1.86,2.34,5.26,5.26,0,0,1-3.09.85,5.4,5.4,0,0,1-3.06-.81,5.06,5.06,0,0,1-1.84-2.25,9.21,9.21,0,0,1-.65-3.38H33V159h-1V146.15h1v5.65h3.55a8,8,0,0,1,.72-3.06,4.73,4.73,0,0,1,1.85-2.05,5.64,5.64,0,0,1,3-.74,5.34,5.34,0,0,1,3,.83A5.09,5.09,0,0,1,47,149.1,8.76,8.76,0,0,1,47.61,152.56Zm-10-.13a9.07,9.07,0,0,0,.47,3,4.46,4.46,0,0,0,6.53,2.07,4.12,4.12,0,0,0,1.46-2,8.79,8.79,0,0,0,.47-3,8.55,8.55,0,0,0-.47-3,4.14,4.14,0,0,0-1.46-2,4.09,4.09,0,0,0-2.52-.72,4.29,4.29,0,0,0-2.53.7,4,4,0,0,0-1.48,1.92A8.32,8.32,0,0,0,37.58,152.43Zm20-6.28v.93h-6V159h-1V146.15Zm9.05.75a7.36,7.36,0,0,0-1.64.18,8.29,8.29,0,0,0-1.48.49l-.41-.9a7.53,7.53,0,0,1,1.66-.5,8.42,8.42,0,0,1,1.89-.2,6.26,6.26,0,0,1,3.29.79,4.84,4.84,0,0,1,2,2.25,8.25,8.25,0,0,1,.65,3.4,8.47,8.47,0,0,1-.7,3.58,5.35,5.35,0,0,1-2.07,2.36,6.33,6.33,0,0,1-3.35.83,11.41,11.41,0,0,1-1.89-.14,8.21,8.21,0,0,1-1.48-.38v-.94a14.92,14.92,0,0,0,1.5.38,9.44,9.44,0,0,0,1.74.14,4.78,4.78,0,0,0,3.78-1.45,6,6,0,0,0,1.37-4H64.76v-.93h6.73a5.51,5.51,0,0,0-1.35-3.62A4.49,4.49,0,0,0,66.67,146.9ZM84.92,159h-1v-6.26H76.55V159h-1V146.15h1v5.65h7.33v-5.65h1Zm10.67,0H88.53V146.15h7.06v.93h-6v4.7h5.67v.94H89.58v5.34h6Zm6.1-12.85q4.62,0,4.62,3.63a3.7,3.7,0,0,1-1.2,2.92,5.49,5.49,0,0,1-3.69,1H99.53V159h-1V146.15Zm-.11.92h-2v5.76h1.78a5.44,5.44,0,0,0,2.88-.65,2.54,2.54,0,0,0,1-2.34,2.46,2.46,0,0,0-.9-2.11A4.6,4.6,0,0,0,101.58,147.07Zm14.59-.92v.93h-6V159h-1V146.15Zm12.57,6.41a8.63,8.63,0,0,1-.64,3.45,5.23,5.23,0,0,1-1.95,2.34,5.75,5.75,0,0,1-3.19.83,6,6,0,0,1-3.24-.83A5.17,5.17,0,0,1,117.8,156a9,9,0,0,1-.63-3.47,8.51,8.51,0,0,1,.65-3.44,5.2,5.2,0,0,1,2-2.3A5.81,5.81,0,0,1,123,146a5.74,5.74,0,0,1,3.13.81,5,5,0,0,1,1.93,2.27A8.59,8.59,0,0,1,128.74,152.56Zm-10.47,0a8.13,8.13,0,0,0,.5,3,4.22,4.22,0,0,0,1.55,2,5.35,5.35,0,0,0,5.29,0,4,4,0,0,0,1.53-2,8.13,8.13,0,0,0,.5-3,6.64,6.64,0,0,0-1.17-4.18,4.05,4.05,0,0,0-3.45-1.49,4.61,4.61,0,0,0-2.66.72,4.14,4.14,0,0,0-1.59,2A7.82,7.82,0,0,0,118.27,152.54Z" transform="translate(-0.11)" style="fill:#6b6bcc"/><path d="M4.47,177.87a9.92,9.92,0,0,1-.66,1.18,2.85,2.85,0,0,1-.86.8,2.36,2.36,0,0,1-1.21.29,2.85,2.85,0,0,1-.7-.07,2.31,2.31,0,0,1-.48-.14v-.56a2.67,2.67,0,0,0,.52.2,4,4,0,0,0,.63.05,1.87,1.87,0,0,0,1-.25,2.36,2.36,0,0,0,.71-.73,7.32,7.32,0,0,0,.6-1.16L.11,170h.6l3.18,6.09c.09.18.16.34.21.47s.14.28.21.44h0c0-.14.11-.28.18-.43s.12-.3.18-.43L7.48,170h.58Zm10.69-5.29V180h-.54v-6.92H9.89V180H9.35v-7.42Zm5.71-.14a2.68,2.68,0,0,1,2.23,1,4.39,4.39,0,0,1,.78,2.82,4.49,4.49,0,0,1-.82,2.9,2.82,2.82,0,0,1-2.3,1,2.7,2.7,0,0,1-1.68-.48,2.59,2.59,0,0,1-.87-1.14h0c0,.28,0,.57,0,.86s0,.57,0,.84v3.06h-.53v-10.7h.45l.05,1.62h0a2.71,2.71,0,0,1,.52-.85,2.68,2.68,0,0,1,.88-.66A2.92,2.92,0,0,1,20.87,172.44Zm0,.49a2.3,2.3,0,0,0-2,.87,4,4,0,0,0-.66,2.43v.09a4,4,0,0,0,.66,2.52,2.26,2.26,0,0,0,1.86.81,2.26,2.26,0,0,0,1.91-.88,4.11,4.11,0,0,0,.68-2.54Q23.32,172.93,20.83,172.93Zm7.61-.48a2.31,2.31,0,0,1,1.78.63,2.76,2.76,0,0,1,.6,2V180h-.43l-.1-1.37h0a2.7,2.7,0,0,1-2.66,1.51,2.47,2.47,0,0,1-1.68-.53,1.93,1.93,0,0,1-.57-1.47,1.84,1.84,0,0,1,.91-1.67,5.6,5.6,0,0,1,2.62-.66l1.4-.08v-.56a2.57,2.57,0,0,0-.46-1.71,1.79,1.79,0,0,0-1.39-.52,5,5,0,0,0-2.2.56l-.17-.47a7,7,0,0,1,1.14-.41A4.64,4.64,0,0,1,28.44,172.45Zm.49,3.8a5,5,0,0,0-2.22.52,1.47,1.47,0,0,0-.8,1.37,1.42,1.42,0,0,0,.46,1.13,2,2,0,0,0,1.29.39,2.44,2.44,0,0,0,2-.74,3,3,0,0,0,.66-2v-.74Zm9.74-1.88a1.66,1.66,0,0,1-.36,1.12,1.72,1.72,0,0,1-.93.55v0a1.91,1.91,0,0,1,1.16.57,1.74,1.74,0,0,1,.44,1.26,1.92,1.92,0,0,1-.65,1.53,2.86,2.86,0,0,1-1.94.56H33.24v-7.42h3a2.76,2.76,0,0,1,1.81.49A1.61,1.61,0,0,1,38.67,174.37Zm-.56,0a1.21,1.21,0,0,0-.43-1,2.24,2.24,0,0,0-1.45-.36H33.77v2.77h2.42a2.35,2.35,0,0,0,1.46-.36A1.28,1.28,0,0,0,38.11,174.4Zm.31,3.51a1.32,1.32,0,0,0-.56-1.2,2.94,2.94,0,0,0-1.64-.38H33.77v3.19h2.51C37.7,179.52,38.42,179,38.42,177.91ZM46.11,180h-.54v-6.93H42.86c-.11,1.57-.25,2.87-.42,3.91a6.68,6.68,0,0,1-.72,2.32,1.45,1.45,0,0,1-1.29.77,1.35,1.35,0,0,1-.31,0l-.18,0v-.47a1.48,1.48,0,0,0,.43.05c.62,0,1.07-.56,1.35-1.69a32.86,32.86,0,0,0,.65-5.32h3.74Zm2.22,0h-.66l2.27-3.22a2.1,2.1,0,0,1-1.29-3.65,2.72,2.72,0,0,1,1.76-.55h3V180h-.53v-3.18H50.52Zm.18-5.26c0,1.07.65,1.61,1.94,1.61h2.41v-3.28H50.47a2.18,2.18,0,0,0-1.46.43A1.53,1.53,0,0,0,48.51,174.74Zm16.37,1.55a5.77,5.77,0,0,1-.32,2,2.91,2.91,0,0,1-1,1.38,2.73,2.73,0,0,1-1.68.5,2.61,2.61,0,0,1-1.61-.48,2.87,2.87,0,0,1-1-1.33,5.64,5.64,0,0,1-.34-2H56.45V180h-.54v-7.42h.54v3.29H59a4.91,4.91,0,0,1,.37-1.69,2.91,2.91,0,0,1,1-1.26,2.68,2.68,0,0,1,1.64-.48,2.59,2.59,0,0,1,1.69.53,2.94,2.94,0,0,1,1,1.4A6.14,6.14,0,0,1,64.88,176.29Zm-5.36,0a5.61,5.61,0,0,0,.24,1.69,2.64,2.64,0,0,0,.77,1.22,2,2,0,0,0,1.38.45,2.08,2.08,0,0,0,1.37-.43,2.53,2.53,0,0,0,.79-1.19,5.58,5.58,0,0,0,.25-1.74,5.35,5.35,0,0,0-.25-1.71,2.58,2.58,0,0,0-.77-1.2,2,2,0,0,0-1.37-.45,2.07,2.07,0,0,0-1.39.45,2.62,2.62,0,0,0-.77,1.22A5.22,5.22,0,0,0,59.52,176.29Zm16.66-3.71v6.93h1v3h-.55V180H66.93v-7.42h.54v6.93h3.81v-6.93h.55v6.93h3.8v-6.93Zm5.11-.13a2.3,2.3,0,0,1,1.77.63,2.76,2.76,0,0,1,.61,2V180h-.44l-.1-1.37h0a3.1,3.1,0,0,1-1,1.08,2.94,2.94,0,0,1-1.7.43,2.43,2.43,0,0,1-1.68-.53,1.9,1.9,0,0,1-.58-1.47,1.84,1.84,0,0,1,.91-1.67,5.6,5.6,0,0,1,2.62-.66l1.4-.08v-.56a2.52,2.52,0,0,0-.46-1.71,1.79,1.79,0,0,0-1.39-.52,5,5,0,0,0-2.2.56l-.16-.47a6.57,6.57,0,0,1,1.13-.41A4.71,4.71,0,0,1,81.29,172.45Zm.49,3.8a5,5,0,0,0-2.23.52,1.47,1.47,0,0,0-.8,1.37,1.45,1.45,0,0,0,.46,1.13,2,2,0,0,0,1.29.39,2.44,2.44,0,0,0,2-.74,3,3,0,0,0,.66-2v-.74Zm4,3.75h-.66l2.27-3.22a1.89,1.89,0,0,1-2-2,1.93,1.93,0,0,1,.68-1.62,2.77,2.77,0,0,1,1.77-.55h3V180h-.53v-3.18H88Zm.18-5.26c0,1.07.65,1.61,2,1.61h2.41v-3.28h-2.4a2.15,2.15,0,0,0-1.45.43A1.54,1.54,0,0,0,86,174.74Zm15-2.16h.66l-3.42,3.61,3.59,3.81h-.69l-3.54-3.75V180H97v-7.42h.53v3.61Zm8,3.71a5,5,0,0,1-.37,2,3,3,0,0,1-1.07,1.37,3.19,3.19,0,0,1-1.82.49,2.91,2.91,0,0,1-2.87-1.85,5,5,0,0,1-.37-2,4.22,4.22,0,0,1,.87-2.81,3.08,3.08,0,0,1,5.28.84A5.28,5.28,0,0,1,109,176.29Zm-5.94,0a4.16,4.16,0,0,0,.66,2.44,2.32,2.32,0,0,0,2,.92,2.66,2.66,0,0,0,1.54-.42,2.54,2.54,0,0,0,.88-1.19,4.94,4.94,0,0,0,.28-1.75,5.07,5.07,0,0,0-.27-1.71,2.5,2.5,0,0,0-.85-1.2,2.38,2.38,0,0,0-1.51-.45,2.47,2.47,0,0,0-2,.9A3.89,3.89,0,0,0,103,176.29Zm15-3.71V180h-.51v-6.06c0-.18,0-.37,0-.58h0L114.75,180h-.47l-2.76-6.65h0c0,.22,0,.41,0,.59V180H111v-7.42h.76l2.76,6.72,2.78-6.72Zm8,0V180h-.55v-6.92h-4.73V180h-.53v-7.42Zm5-.13a2.33,2.33,0,0,1,1.78.63,2.76,2.76,0,0,1,.6,2V180H133l-.1-1.37h0a2.7,2.7,0,0,1-2.66,1.51,2.43,2.43,0,0,1-1.68-.53,1.93,1.93,0,0,1-.57-1.47,1.84,1.84,0,0,1,.91-1.67,5.57,5.57,0,0,1,2.62-.66l1.39-.08v-.56a2.52,2.52,0,0,0-.46-1.71,1.76,1.76,0,0,0-1.38-.52,5,5,0,0,0-2.2.56l-.17-.47a6.89,6.89,0,0,1,1.13-.41A4.77,4.77,0,0,1,131.05,172.45Zm.49,3.8a5,5,0,0,0-2.22.52,1.45,1.45,0,0,0-.8,1.37,1.42,1.42,0,0,0,.46,1.13,2,2,0,0,0,1.29.39,2.45,2.45,0,0,0,2-.74,2.94,2.94,0,0,0,.65-2v-.74Zm4.84-3.67v3.3h4.86v-3.3h.54V180h-.54v-3.63h-4.86V180h-.53v-7.42Zm8.43,5.56c0,.21,0,.41,0,.6s0,.39,0,.6l4.56-6.76H150V180h-.52v-6.22c0-.17,0-.37,0-.57L144.93,180h-.64v-7.42h.52Zm7.41,1.86h-.66l2.27-3.22a2.1,2.1,0,0,1-1.29-3.65,2.74,2.74,0,0,1,1.76-.55h3V180h-.54v-3.18h-2.33Zm.18-5.26c0,1.07.65,1.61,1.95,1.61h2.4v-3.28h-2.39a2.19,2.19,0,0,0-1.46.43A1.56,1.56,0,0,0,152.4,174.74Z" transform="translate(-0.11)" style="fill:#6b6bcc"/></svg>