<svg xmlns="http://www.w3.org/2000/svg" viewBox="0 0 25 35"><path d="M17.5,18.75a1.26,1.26,0,0,1,1.25-1.25h7.5a1.25,1.25,0,0,1,0,2.5h-7.5a1.26,1.26,0,0,1-1.25-1.25Zm0,7.5A1.26,1.26,0,0,1,18.75,25h7.5a1.25,1.25,0,0,1,0,2.5h-7.5a1.26,1.26,0,0,1-1.25-1.25ZM13.75,20a1.26,1.26,0,1,0-.88-.37A1.22,1.22,0,0,0,13.75,20Zm0,7.5a1.26,1.26,0,1,0-.88-.37A1.22,1.22,0,0,0,13.75,27.5ZM12.71,5a3.76,3.76,0,0,1,3.54-2.5h7.5A3.76,3.76,0,0,1,27.29,5h1.46A3.76,3.76,0,0,1,32.5,8.75v25a3.76,3.76,0,0,1-3.75,3.75H11.25A3.76,3.76,0,0,1,7.5,33.75v-25A3.76,3.76,0,0,1,11.25,5Zm3.54,0a1.24,1.24,0,0,0-.88,2.13,1.22,1.22,0,0,0,.88.37h7.5a1.24,1.24,0,0,0,.88-2.13A1.22,1.22,0,0,0,23.75,5ZM12.71,7.5H11.25A1.26,1.26,0,0,0,10,8.75v25A1.26,1.26,0,0,0,11.25,35h17.5A1.26,1.26,0,0,0,30,33.75v-25A1.26,1.26,0,0,0,28.75,7.5H27.29A3.76,3.76,0,0,1,23.75,10h-7.5a3.76,3.76,0,0,1-3.54-2.5Z" transform="translate(-7.5 -2.5)"/></svg>