<svg xmlns="http://www.w3.org/2000/svg" xmlns:xlink="http://www.w3.org/1999/xlink" viewBox="0 0 61.25 61.25"><defs><linearGradient id="a" x1="-2.21" y1="42.24" x2="65.53" y2="32.7" gradientTransform="matrix(1, 0, 0, -1, 0, 72)" gradientUnits="userSpaceOnUse"><stop offset="0" stop-color="#8728e6"/><stop offset="1" stop-color="#e36ced"/></linearGradient></defs><path d="M35,4.38A30.62,30.62,0,1,0,65.62,35,30.62,30.62,0,0,0,35,4.38Zm2.19,45.39a.55.55,0,0,1-.55.54H33.36a.55.55,0,0,1-.55-.54V31.17a.55.55,0,0,1,.55-.55h3.28a.55.55,0,0,1,.55.55ZM35,26.25a3.28,3.28,0,0,1-2.28-5.58,3.14,3.14,0,0,1,4.56,0A3.28,3.28,0,0,1,35,26.25Z" transform="translate(-4.38 -4.38)" style="fill:url(#a)"/></svg>