<svg xmlns="http://www.w3.org/2000/svg" xmlns:xlink="http://www.w3.org/1999/xlink" viewBox="0 0 61.25 61.25"><defs><linearGradient id="a" x1="-2.21" y1="42.24" x2="65.53" y2="32.7" gradientTransform="matrix(1, 0, 0, -1, 0, 72)" gradientUnits="userSpaceOnUse"><stop offset="0" stop-color="#8728e6"/><stop offset="1" stop-color="#e36ced"/></linearGradient></defs><path d="M35,4.38A30.62,30.62,0,1,0,65.62,35,30.62,30.62,0,0,0,35,4.38Zm0,48.39A2.74,2.74,0,1,1,37.73,50,2.73,2.73,0,0,1,35,52.77Zm4.3-15A3.35,3.35,0,0,0,37.77,39a3.27,3.27,0,0,0-.58,1.86v1.55a.55.55,0,0,1-.55.55H33.36a.55.55,0,0,1-.55-.55V40.91a7.77,7.77,0,0,1,1.36-4.43,7.67,7.67,0,0,1,3.56-2.8,5.52,5.52,0,0,0,3.83-5c0-3-2.94-5.47-6.56-5.47s-6.56,2.46-6.56,5.47v.52a.55.55,0,0,1-.55.55H24.61a.55.55,0,0,1-.55-.55v-.52a9.33,9.33,0,0,1,3.31-7.06,11.86,11.86,0,0,1,15.26,0,9.33,9.33,0,0,1,3.31,7.06A9.88,9.88,0,0,1,39.3,37.77Z" transform="translate(-4.38 -4.38)" style="fill:url(#a)"/></svg>