<svg xmlns="http://www.w3.org/2000/svg" viewBox="0 0 20 20"><path d="M.61,16.19a26.53,26.53,0,0,1-.43-8.7C.32,6.56,5.29,2.75,8.12.64A3.23,3.23,0,0,1,12,.63c2.85,2.11,7.87,5.93,7.93,6.86v.1a33.16,33.16,0,0,1-.44,8.6c-.43,2.18-1.7,3.16-4.28,3.48l-.55.07a.42.42,0,0,1-.46-.42V13.43a2.5,2.5,0,0,0-2.5-2.51H8.33a2.5,2.5,0,0,0-2.5,2.51v5.89a.41.41,0,0,1-.46.41l-.47-.06C2.31,19.34,1.09,18.35.61,16.19Z" transform="translate(0 0)" style="fill:#6b6bcc"/><path d="M7.5,19.53a.41.41,0,0,0,.39.41,37.13,37.13,0,0,0,4.22,0,.41.41,0,0,0,.39-.41v-6.1a.84.84,0,0,0-.83-.84H8.33a.84.84,0,0,0-.83.84Z" transform="translate(0 0)" style="fill:#6b6bcc"/></svg>