<svg xmlns="http://www.w3.org/2000/svg" viewBox="0 0 20 20"><path d="M20,9.13c0-.49-.05-1-.07-1.48a1,1,0,0,0-.19-.53,4.89,4.89,0,0,0-.45-.55,29.71,29.71,0,0,0-2.66-2.36C15.14,3,13.62,1.87,12.1.73A3.33,3.33,0,0,0,10.3,0,3.12,3.12,0,0,0,8.12.65c-2,1.5-4,3-5.93,4.67A15,15,0,0,0,.52,6.94a1.18,1.18,0,0,0-.33.57A16.69,16.69,0,0,0,0,9.63,26.69,26.69,0,0,0,.25,14.1a18.54,18.54,0,0,0,.46,2.47,4,4,0,0,0,1,1.78,4,4,0,0,0,1.61,1,9.34,9.34,0,0,0,2,.4c.88.1,1.76.18,2.64.23.71,0,1.43.06,1.92.05.71,0,1.2,0,1.68,0s1.15-.05,1.72-.1,1.24-.11,1.86-.19a8.11,8.11,0,0,0,1.87-.4,3.68,3.68,0,0,0,1.76-1.22,4.25,4.25,0,0,0,.77-1.8c.15-.76.27-1.53.36-2.29.1-.92.16-1.83.18-2.75C20,10.53,20,9.83,20,9.13ZM12.34,17.7c0,.23,0,.23-.22.24C11.05,18,10,18,8.9,18l-1.1,0c-.11,0-.14,0-.13-.13V15.63h0V13.45a.78.78,0,0,1,.72-.68h3.24a.77.77,0,0,1,.7.67c0,.32,0,.63,0,.94ZM18,11.19c0,.85-.08,1.7-.18,2.54a19,19,0,0,1-.39,2.38,1.74,1.74,0,0,1-.53.95,2.31,2.31,0,0,1-.85.41,8,8,0,0,1-1.52.27c-.19,0-.19,0-.19-.19v-2c0-.67,0-1.33,0-2a2.81,2.81,0,0,0-2.42-2.73H8.41a2.57,2.57,0,0,0-1.79.68,2.67,2.67,0,0,0-.92,1.64,2.31,2.31,0,0,0,0,.37v4.18c0,.09,0,.12-.12.1a8.41,8.41,0,0,1-1.73-.34,1.73,1.73,0,0,1-1.14-1.21,13.54,13.54,0,0,1-.32-1.51c-.11-.59-.18-1.19-.24-1.78S2.05,12,2,11.55s0-1,0-1.51,0-1.22.11-1.83a.23.23,0,0,1,.07-.13,14.27,14.27,0,0,1,1-1c1.95-1.71,4-3.26,6.08-4.81a1.2,1.2,0,0,1,1.48,0c1.48,1.09,3,2.2,4.38,3.35C16,6.29,16.84,7,17.61,7.74c.32.31.32.31.34.75C18,9.39,18,10.29,18,11.19Z" transform="translate(0 -0.01)" style="fill:#6a6acb"/></svg>