<svg xmlns="http://www.w3.org/2000/svg" viewBox="0 0 20 20"><path d="M10,20a24.35,24.35,0,0,1-5-.4,6,6,0,0,1-3-1.51A6,6,0,0,1,.4,15,24.28,24.28,0,0,1,0,10,24.35,24.35,0,0,1,.4,5a6,6,0,0,1,1.51-3A6,6,0,0,1,5,.4,24.35,24.35,0,0,1,10,0a24.28,24.28,0,0,1,5,.4,6,6,0,0,1,3.05,1.51A6,6,0,0,1,19.6,5a24.35,24.35,0,0,1,.4,5,24.28,24.28,0,0,1-.4,5,6,6,0,0,1-1.51,3.05A6,6,0,0,1,15,19.6,24.28,24.28,0,0,1,10,20ZM10,2a21.51,21.51,0,0,0-4.6.36,4,4,0,0,0-2.07,1,4,4,0,0,0-1,2.07A21.51,21.51,0,0,0,2,10a21.51,21.51,0,0,0,.36,4.6,4,4,0,0,0,1,2.07,4,4,0,0,0,2.07,1A21.51,21.51,0,0,0,10,18a21.51,21.51,0,0,0,4.6-.36,4,4,0,0,0,2.07-1,4,4,0,0,0,1-2.07A21.51,21.51,0,0,0,18,10a21.51,21.51,0,0,0-.36-4.6,4,4,0,0,0-1-2.07,4,4,0,0,0-2.07-1A21.51,21.51,0,0,0,10,2Z" style="fill:#6b6bcc"/><rect x="2" y="5.67" width="16" height="2" style="fill:#6b6bcc"/><path d="M15,16H11.67a1,1,0,0,1,0-2H15a1,1,0,0,1,0,2Z" style="fill:#6b6bcc"/></svg>