<svg xmlns="http://www.w3.org/2000/svg" viewBox="0 0 20 20"><path d="M8.33,6.83H5.83a1,1,0,0,1,0-2h2.5a1,1,0,0,1,0,2Z" style="fill:#6b6bcc"/><path d="M14.17,11H5.83a1,1,0,0,1,0-2h8.34a1,1,0,1,1,0,2Z" style="fill:#6b6bcc"/><path d="M10,20a24.35,24.35,0,0,1-5-.4,6,6,0,0,1-3-1.51A6,6,0,0,1,.4,15,24.28,24.28,0,0,1,0,10,24.35,24.35,0,0,1,.4,5a6,6,0,0,1,1.51-3A6,6,0,0,1,5,.4,24.35,24.35,0,0,1,10,0a24.28,24.28,0,0,1,5,.4,6,6,0,0,1,3.05,1.51A6,6,0,0,1,19.6,5a24.35,24.35,0,0,1,.4,5c0,.95,0,1.77-.07,2.5-.18,2.77-.75,4.5-1.84,5.59s-2.82,1.66-5.59,1.84C11.77,20,11,20,10,20ZM10,2a21.51,21.51,0,0,0-4.6.36,4,4,0,0,0-2.07,1,4,4,0,0,0-1,2.07A21.51,21.51,0,0,0,2,10a21.51,21.51,0,0,0,.36,4.6,4,4,0,0,0,1,2.07,4,4,0,0,0,2.07,1A21.51,21.51,0,0,0,10,18c.9,0,1.68,0,2.37-.07,2.25-.14,3.58-.53,4.3-1.26s1.12-2.05,1.26-4.3C18,11.68,18,10.9,18,10a21.51,21.51,0,0,0-.36-4.6,4,4,0,0,0-1-2.07,4,4,0,0,0-2.07-1A21.51,21.51,0,0,0,10,2Z" style="fill:#6b6bcc"/></svg>