<svg xmlns="http://www.w3.org/2000/svg" viewBox="0 0 20 20"><path d="M.44,15.61A26.56,26.56,0,0,1,0,10,26.56,26.56,0,0,1,.44,4.39,5.22,5.22,0,0,1,1.71,1.71,5.22,5.22,0,0,1,4.39.44,26.56,26.56,0,0,1,10,0a26.56,26.56,0,0,1,5.61.44,5.22,5.22,0,0,1,2.68,1.27,5.22,5.22,0,0,1,1.27,2.68A26.56,26.56,0,0,1,20,10c0,1.15,0,2.16-.09,3.05l-.49,0L19,13c-.44,0-.95,0-1.47,0a5,5,0,0,0-3.18,1.31A4.84,4.84,0,0,0,13,17.47a14,14,0,0,0,0,1.45c0,.14,0,.27,0,.4s0,.41,0,.59Q11.73,20,10,20a26.56,26.56,0,0,1-5.61-.44,5.22,5.22,0,0,1-2.68-1.27A5.22,5.22,0,0,1,.44,15.61ZM4,5A1,1,0,0,1,5,4H8A1,1,0,0,1,8,6H5A1,1,0,0,1,4,5ZM5,9a1,1,0,0,0,0,2H15a1,1,0,0,0,0-2Z" style="fill:#6b6bcc;fill-rule:evenodd"/><path d="M19.27,15h.4c0,.2-.07.39-.11.57a5.22,5.22,0,0,1-1.27,2.68,5.22,5.22,0,0,1-2.68,1.27l-.56.11c0-.16,0-.34,0-.5s0-.23,0-.33a9.93,9.93,0,0,1,0-1.22,2.83,2.83,0,0,1,.71-1.87A2.94,2.94,0,0,1,17.65,15a10.23,10.23,0,0,1,1.24,0Z" style="fill:#6b6bcc"/></svg>