<svg xmlns="http://www.w3.org/2000/svg" viewBox="0 0 18.2 20"><path d="M10,20c-3.64,0-5.39-.41-6.45-1.5a5.66,5.66,0,0,1-1.24-2.3c-.27-.83-.5-1.81-.8-3l-.16-.65h0c-.7-3-.35-4.86,1.12-6a6.76,6.76,0,0,1,3-1.17A25.62,25.62,0,0,1,10,5a25.62,25.62,0,0,1,4.56.33,6.76,6.76,0,0,1,3,1.17c1.47,1.14,1.83,3.05,1.12,6l-.16.66c-.3,1.23-.53,2.21-.8,3a5.66,5.66,0,0,1-1.24,2.3C15.39,19.59,13.64,20,10,20ZM3.3,12l.14.57c.3,1.28.52,2.22.77,3A4.11,4.11,0,0,0,5,17.11c.43.44,1.36.89,5,.89s4.59-.45,5-.89a4.11,4.11,0,0,0,.77-1.53c.25-.76.47-1.7.75-2.89l.14-.57c.76-3.16-.06-3.8-.37-4a5.11,5.11,0,0,0-2.12-.79A24.39,24.39,0,0,0,10,7a24.39,24.39,0,0,0-4.19.29,5.11,5.11,0,0,0-2.12.79C3.38,8.32,2.56,9,3.3,12Z" transform="translate(-0.9)"/><path d="M13.6,16a1,1,0,0,1-1-1V10a1,1,0,0,1,2,0v5A1,1,0,0,1,13.6,16ZM10,16a1,1,0,0,1-1-1V10a1,1,0,0,1,2,0v5A1,1,0,0,1,10,16ZM6.4,16a1,1,0,0,1-1-1V10a1,1,0,0,1,2,0v5A1,1,0,0,1,6.4,16Z" transform="translate(-0.9)"/><path d="M11.8,1.56a16.4,16.4,0,0,1,6.79,1.73,1,1,0,0,1-1,1.75A15.86,15.86,0,0,0,10,3.5C6,3.5,3.47,4.4,2.41,5A1,1,0,0,1,1,4.68a1,1,0,0,1,.35-1.37A15.88,15.88,0,0,1,8.2,1.56V1a1,1,0,0,1,1-1h1.6a1,1,0,0,1,1,1Z" transform="translate(-0.9)" style="fill-rule:evenodd"/></svg>