<svg xmlns="http://www.w3.org/2000/svg" viewBox="0 0 144.93 60.95"><path d="M91.43,19.27a2.5,2.5,0,0,0-3.53-3.54L68.83,34.8l-8.65-8.65a2.5,2.5,0,0,0-3.53,3.53L67.06,40.09h0a2.49,2.49,0,0,0,3.53,0Z" transform="translate(-0.7 -15)" style="fill:#a9a9ff;fill-rule:evenodd"/><path d="M4.4,63.19a3.23,3.23,0,0,1,2.7,1.27,5.94,5.94,0,0,1,1,3.72,6,6,0,0,1-1,3.71A3.21,3.21,0,0,1,4.4,73.18a3.27,3.27,0,0,1-2.72-1.26,6,6,0,0,1-1-3.72,7.29,7.29,0,0,1,.45-2.73,3.71,3.71,0,0,1,1.29-1.71A3.4,3.4,0,0,1,4.4,63.19Zm0,1q-2.33,0-2.33,4T4.4,72.13a1.91,1.91,0,0,0,1.73-.94,5.85,5.85,0,0,0,.59-3,5.83,5.83,0,0,0-.6-3A1.91,1.91,0,0,0,4.4,64.22ZM13.82,73V66.63H11.19V73H9.93V65.64h5.15V73Zm8.47-7.36V73H21V66.63H19l-.19,2.7a16.35,16.35,0,0,1-.28,2.16A2.07,2.07,0,0,1,18,72.54a2.87,2.87,0,0,1-1.1.61l-.31-1a1.29,1.29,0,0,0,.57-.42,2,2,0,0,0,.27-.8c.06-.35.11-.94.17-1.75l.25-3.58Zm6.84,5.68a1.32,1.32,0,0,0,.13.67.74.74,0,0,0,.39.32l-.27.86a1.79,1.79,0,0,1-.85-.34,1.32,1.32,0,0,1-.43-.77,2.26,2.26,0,0,1-2,1.12,2,2,0,0,1-1.55-.6A2.32,2.32,0,0,1,24,70.94a2.14,2.14,0,0,1,.77-1.79,3.42,3.42,0,0,1,2.19-.62h1V67.9a1.52,1.52,0,0,0-.33-1.1,1.26,1.26,0,0,0-1-.35,5.13,5.13,0,0,0-1.79.39L24.44,66a6,6,0,0,1,2.3-.51,2.12,2.12,0,0,1,2.39,2.4Zm-2.74.91a1.64,1.64,0,0,0,1.5-1.15V69.35h-.82c-1.21,0-1.82.5-1.82,1.52a1.5,1.5,0,0,0,.3,1A1,1,0,0,0,26.39,72.23Zm9.28-6.59-.16,1h-2V73H32.21V66.64H30.07v-1Zm5.25,5.68A1.46,1.46,0,0,0,41,72a.81.81,0,0,0,.4.32l-.27.86a1.75,1.75,0,0,1-.85-.34,1.38,1.38,0,0,1-.44-.77,2.23,2.23,0,0,1-2,1.12,2,2,0,0,1-1.55-.6,2.28,2.28,0,0,1-.58-1.64,2.17,2.17,0,0,1,.77-1.79,3.45,3.45,0,0,1,2.2-.62h1V67.9a1.57,1.57,0,0,0-.32-1.1,1.29,1.29,0,0,0-1-.35,5.09,5.09,0,0,0-1.79.39L36.23,66a6,6,0,0,1,2.29-.51,2.12,2.12,0,0,1,2.4,2.4Zm-2.75.91a1.62,1.62,0,0,0,1.5-1.15V69.35h-.81c-1.21,0-1.82.5-1.82,1.52a1.56,1.56,0,0,0,.29,1A1.06,1.06,0,0,0,38.17,72.23ZM50.38,73V66.63H47.74V73H46.48V65.64h5.16V73Zm6.71-7.55a2,2,0,0,1,1.8,1,5.42,5.42,0,0,1,.62,2.84,5.12,5.12,0,0,1-.69,2.84,2.13,2.13,0,0,1-1.89,1.05,2.1,2.1,0,0,1-1.76-.88v3.5L53.91,76V65.64H55l.07,1A2.31,2.31,0,0,1,57.09,65.45Zm-.45,6.72c1,0,1.55-1,1.55-2.87a4.88,4.88,0,0,0-.36-2.17,1.16,1.16,0,0,0-1.08-.68,1.4,1.4,0,0,0-.87.29,3.32,3.32,0,0,0-.71.8v3.72A1.68,1.68,0,0,0,56.64,72.17Zm7.28-6.72a2.66,2.66,0,0,1,2.2,1,5.54,5.54,0,0,1,0,5.7,2.6,2.6,0,0,1-2.19,1,2.67,2.67,0,0,1-2.22-1,4.59,4.59,0,0,1-.78-2.84,4.49,4.49,0,0,1,.8-2.84A2.63,2.63,0,0,1,63.92,65.45Zm0,1a1.41,1.41,0,0,0-1.26.7,4.17,4.17,0,0,0-.43,2.16c0,1.91.56,2.87,1.68,2.87s1.68-1,1.68-2.89a4.24,4.24,0,0,0-.42-2.15A1.37,1.37,0,0,0,63.92,66.46Zm12.55-.82V73H68.73V65.64h1.2V72H72V65.64h1.14V72h2.08V65.64Zm7.21,0V73H82.42V66.63h-2l-.19,2.7a16.35,16.35,0,0,1-.28,2.16,2.25,2.25,0,0,1-.51,1.05,2.87,2.87,0,0,1-1.1.61l-.31-1a1.29,1.29,0,0,0,.57-.42,2.12,2.12,0,0,0,.27-.8c.05-.35.11-.94.17-1.75l.25-3.58Zm6.84,5.68a1.46,1.46,0,0,0,.12.67.81.81,0,0,0,.4.32l-.27.86a1.75,1.75,0,0,1-.85-.34,1.38,1.38,0,0,1-.44-.77,2.23,2.23,0,0,1-2,1.12,2,2,0,0,1-1.55-.6,2.28,2.28,0,0,1-.58-1.64,2.17,2.17,0,0,1,.77-1.79,3.47,3.47,0,0,1,2.2-.62h1V67.9A1.52,1.52,0,0,0,89,66.8a1.27,1.27,0,0,0-1-.35,5.13,5.13,0,0,0-1.79.39L85.83,66a6,6,0,0,1,2.29-.51,2.12,2.12,0,0,1,2.4,2.4Zm-2.74.91a1.62,1.62,0,0,0,1.49-1.15V69.35h-.81c-1.21,0-1.82.5-1.82,1.52a1.56,1.56,0,0,0,.29,1A1.06,1.06,0,0,0,87.78,72.23Zm11.08.8a4.6,4.6,0,0,1-1.11,2,3.46,3.46,0,0,1-2,.91L95.58,75a3.52,3.52,0,0,0,1-.38,2,2,0,0,0,.63-.62,5,5,0,0,0,.46-1h-.46l-2.18-7.36h1.3l1.71,6.48,1.71-6.48h1.28Zm6-7.58a2.92,2.92,0,0,1,1.08.2,3.11,3.11,0,0,1,.94.6l-.56.76a2.37,2.37,0,0,0-.68-.39,1.71,1.71,0,0,0-.72-.14,1.46,1.46,0,0,0-1.29.7,4.1,4.1,0,0,0-.45,2.18c0,1.85.58,2.77,1.74,2.77a2,2,0,0,0,.71-.12,4.43,4.43,0,0,0,.69-.41l.59.77a3,3,0,0,1-2,.81,2.71,2.71,0,0,1-2.23-1,4.38,4.38,0,0,1-.8-2.83,5.49,5.49,0,0,1,.36-2.08,3.19,3.19,0,0,1,1.06-1.36A2.67,2.67,0,0,1,104.84,65.45ZM112.16,73V66.63h-2.63V73h-1.26V65.64h5.15V73Zm8.7-3.91q0,.3,0,.66h-4.29a3.2,3.2,0,0,0,.52,1.86,1.53,1.53,0,0,0,1.26.56,2.5,2.5,0,0,0,.9-.15,3.15,3.15,0,0,0,.84-.5l.56.74a3.47,3.47,0,0,1-2.35.92,2.71,2.71,0,0,1-2.24-1,4.44,4.44,0,0,1-.79-2.82,4.82,4.82,0,0,1,.76-2.85,2.43,2.43,0,0,1,2.1-1.07,2.38,2.38,0,0,1,2,1A4.32,4.32,0,0,1,120.86,69.09Zm-1.22-.37q0-2.31-1.53-2.31A1.27,1.27,0,0,0,117,67a3.66,3.66,0,0,0-.47,1.88h3.1Zm10.71-3.08V73h-7.74V65.64h1.2V72h2.1V65.64h1.14V72h2.08V65.64Zm6.2,7.36V69.72h-2.67V73h-1.26V65.64h1.26v3.09h2.67V65.64h1.26V73Zm6.09-7.55a2.64,2.64,0,0,1,2.2,1,4.52,4.52,0,0,1,.78,2.85,4.61,4.61,0,0,1-.79,2.85,2.88,2.88,0,0,1-4.41,0,4.59,4.59,0,0,1-.79-2.84,4.49,4.49,0,0,1,.8-2.84A2.63,2.63,0,0,1,142.64,65.45Zm0,1a1.41,1.41,0,0,0-1.26.7,4.17,4.17,0,0,0-.43,2.16c0,1.91.56,2.87,1.68,2.87s1.68-1,1.68-2.89a4.24,4.24,0,0,0-.42-2.15A1.37,1.37,0,0,0,142.64,66.46Z" transform="translate(-0.7 -15)" style="fill:#a9a9ff"/></svg>