<svg xmlns="http://www.w3.org/2000/svg" viewBox="0 0 36 36"><path d="M19.5,9.5a6.23,6.23,0,0,0-5.77,3.86A6.2,6.2,0,0,0,13.37,17a6.25,6.25,0,0,0,4.91,4.91,6.28,6.28,0,0,0,6.42-2.66A6.25,6.25,0,0,0,19.5,9.5Zm0,10a3.76,3.76,0,1,1,2.65-1.1A3.74,3.74,0,0,1,19.5,19.5Z" transform="translate(-2 -2)"/><path d="M20,2A18,18,0,1,0,32.72,7.28,18.06,18.06,0,0,0,20,2ZM12.29,33.34V31.57a3.81,3.81,0,0,1,1.13-2.72,3.86,3.86,0,0,1,2.72-1.14h7.72a3.86,3.86,0,0,1,2.72,1.14,3.81,3.81,0,0,1,1.13,2.72v1.77a15.27,15.27,0,0,1-15.42,0Zm18-1.86a6.45,6.45,0,0,0-6.42-6.34H16.14a6.45,6.45,0,0,0-6.42,6.34,15.43,15.43,0,1,1,20.56,0Z" transform="translate(-2 -2)"/></svg>