<svg xmlns="http://www.w3.org/2000/svg" viewBox="0 0 140.55 42.36"><polygon points="7 27.04 7 7.12 0 11.41 0 30.95 9.33 36.42 16.33 32.12 7 27.04"/><polygon points="18.15 0 9 5.46 9 14.27 18.47 9.19 26 12.95 26 10.85 29 10.86 29 15.04 37 19.21 37 10.7 18.15 0"/><polygon points="11.81 37.94 19.4 42.36 37 31.51 37 21.06 29 17.04 29 27.49 11.81 37.94"/><path d="M55.47,14.72a5,5,0,0,1-.38,2A2.87,2.87,0,0,1,54,18.07a3.21,3.21,0,0,1-1.81.48,3.37,3.37,0,0,1-1.79-.44,2.93,2.93,0,0,1-1.1-1.23,4.79,4.79,0,0,1-.42-1.9H47.12v3.47h-.94V11h.94v3.14H48.9a4.22,4.22,0,0,1,.45-1.71,2.75,2.75,0,0,1,1.1-1.14,3.39,3.39,0,0,1,1.72-.4,3.2,3.2,0,0,1,1.8.48,2.87,2.87,0,0,1,1.11,1.33A4.79,4.79,0,0,1,55.47,14.72Zm-5.62,0a4,4,0,0,0,.55,2.22,2.35,2.35,0,0,0,3.53,0,3.88,3.88,0,0,0,.56-2.22,3.78,3.78,0,0,0-.55-2.19,2,2,0,0,0-1.76-.8,2,2,0,0,0-1.77.8A3.8,3.8,0,0,0,49.85,14.72ZM61.31,11v.83H58.05v6.6h-.93V11Zm5.36.72a3.1,3.1,0,0,0-.94.13,3.86,3.86,0,0,0-.77.27l-.39-.78a4.33,4.33,0,0,1,1-.33,6.12,6.12,0,0,1,1.14-.11,3.65,3.65,0,0,1,2,.48,2.92,2.92,0,0,1,1.16,1.32,4.37,4.37,0,0,1,.39,1.89,5,5,0,0,1-.4,2.1,2.93,2.93,0,0,1-1.19,1.36,3.8,3.8,0,0,1-2,.48,6.79,6.79,0,0,1-1.09-.07,5.43,5.43,0,0,1-.88-.23v-.81l.88.21a5.7,5.7,0,0,0,1,.08,2.66,2.66,0,0,0,2-.71,3,3,0,0,0,.73-2H65.6v-.82h3.6a2.7,2.7,0,0,0-.78-1.78A2.42,2.42,0,0,0,66.67,11.74Zm10.86,6.71h-.94V15h-3.8v3.47h-.94V11h.94v3.14h3.8V11h.94Zm6.18,0H79.56V11h4.15v.82H80.49v2.32h3V15h-3v2.66h3.22ZM87.3,11a3.16,3.16,0,0,1,2.12.58,2,2,0,0,1,.67,1.61,2.54,2.54,0,0,1-.28,1.15,2,2,0,0,1-.93.86,3.77,3.77,0,0,1-1.76.34h-.85v2.89h-.94V11Zm-.08.8h-1v2.94H87a2.89,2.89,0,0,0,1.58-.35,1.27,1.27,0,0,0,.52-1.16,1.25,1.25,0,0,0-.46-1.07A2.31,2.31,0,0,0,87.22,11.82Zm8.6-.8v.83H92.57v6.6h-.94V11Zm7.54,3.7a4.7,4.7,0,0,1-.4,2,3,3,0,0,1-1.14,1.33,3.48,3.48,0,0,1-1.88.48A3.61,3.61,0,0,1,98,18.07a2.92,2.92,0,0,1-1.13-1.34,5,5,0,0,1-.37-2,4.91,4.91,0,0,1,.37-2A3,3,0,0,1,98,11.39a3.62,3.62,0,0,1,1.94-.48,3.44,3.44,0,0,1,1.87.48A2.87,2.87,0,0,1,103,12.72,4.64,4.64,0,0,1,103.36,14.72Zm-5.87,0a3.66,3.66,0,0,0,.6,2.22,2.54,2.54,0,0,0,3.7,0,3.73,3.73,0,0,0,.58-2.22,3.63,3.63,0,0,0-.58-2.19,2.13,2.13,0,0,0-1.84-.8,2.18,2.18,0,0,0-1.86.8A3.56,3.56,0,0,0,97.49,14.72Z"/><path d="M49.23,28.13a6.21,6.21,0,0,1-.44.79,1.63,1.63,0,0,1-.54.51,1.62,1.62,0,0,1-.79.18,2.37,2.37,0,0,1-.41,0,2.13,2.13,0,0,1-.32-.08V29a1.52,1.52,0,0,0,.32.12,2.34,2.34,0,0,0,.38,0,1.05,1.05,0,0,0,.78-.28,2.9,2.9,0,0,0,.52-.83L46.46,23.7H47l1.77,3.42c0,.09.08.17.11.25s.07.16.11.25h0c.06-.17.12-.32.19-.48l1.54-3.44h.5Zm6.23-2.94v4.34H55V25.59H52.42v3.94H52V25.19Zm3.39-.09a1.58,1.58,0,0,1,1.3.57,2.55,2.55,0,0,1,.46,1.66A2.6,2.6,0,0,1,60.13,29a1.65,1.65,0,0,1-1.33.59,1.54,1.54,0,0,1-.92-.25,1.56,1.56,0,0,1-.51-.58h0c0,.13,0,.28,0,.44s0,.31,0,.44v1.79H56.9V25.19h.39l.05.8h0a1.68,1.68,0,0,1,.52-.62A1.56,1.56,0,0,1,58.85,25.1Zm-.06.4a1.26,1.26,0,0,0-1.07.46,2.15,2.15,0,0,0-.35,1.31v.09a2.4,2.4,0,0,0,.33,1.39,1.22,1.22,0,0,0,1,.46,1.17,1.17,0,0,0,1-.5,2.36,2.36,0,0,0,.36-1.39A2.23,2.23,0,0,0,59.79,26,1.14,1.14,0,0,0,58.79,25.5Zm4.53-.39a1.48,1.48,0,0,1,1.09.36,1.56,1.56,0,0,1,.36,1.14v2.92h-.35l-.08-.74h0a2.08,2.08,0,0,1-.58.6,1.79,1.79,0,0,1-.94.22,1.5,1.5,0,0,1-1-.31,1.15,1.15,0,0,1-.36-.91,1.09,1.09,0,0,1,.53-1A3.12,3.12,0,0,1,63.52,27l.8,0v-.3a1.25,1.25,0,0,0-.27-.91,1,1,0,0,0-.75-.27,2.3,2.3,0,0,0-.64.09,4,4,0,0,0-.62.24l-.15-.37a4.42,4.42,0,0,1,.67-.25A3.23,3.23,0,0,1,63.32,25.11Zm.26,2.25a2.67,2.67,0,0,0-1.24.3.8.8,0,0,0-.4.73.76.76,0,0,0,.25.62,1,1,0,0,0,.69.21,1.39,1.39,0,0,0,1-.39,1.54,1.54,0,0,0,.39-1.07v-.43Zm5.88-1.11a1,1,0,0,1-.22.65,1.2,1.2,0,0,1-.58.31v0a1.3,1.3,0,0,1,.69.32,1,1,0,0,1,.27.74,1.17,1.17,0,0,1-.38.9,1.87,1.87,0,0,1-1.22.34H66.16V25.19H68a1.87,1.87,0,0,1,1.09.27A.87.87,0,0,1,69.46,26.25ZM69,26.3a.64.64,0,0,0-.24-.53,1.37,1.37,0,0,0-.8-.18H66.62v1.46h1.26C68.62,27.05,69,26.8,69,26.3Zm.16,2a.73.73,0,0,0-.31-.65,1.74,1.74,0,0,0-.91-.19h-1.3v1.68H68a1.57,1.57,0,0,0,.89-.2A.72.72,0,0,0,69.14,28.29Zm4.72,1.24h-.47V25.59H71.92a19.6,19.6,0,0,1-.26,2.25,3.4,3.4,0,0,1-.46,1.3.86.86,0,0,1-.75.43,1.19,1.19,0,0,1-.32,0v-.37a.76.76,0,0,0,.24,0c.33,0,.58-.32.75-1a17.36,17.36,0,0,0,.39-3h2.35Zm1.43,0h-.56L76,27.67a1.49,1.49,0,0,1-.81-.37,1.17,1.17,0,0,1-.29-.84,1.16,1.16,0,0,1,.41-1,1.7,1.7,0,0,1,1.07-.31h1.82v4.34h-.47V27.72H76.51Zm.1-3.08q0,.87,1.11.87h1.26V25.59h-1.3a1.19,1.19,0,0,0-.81.23A.77.77,0,0,0,75.39,26.45Zm9.66.9a3.07,3.07,0,0,1-.21,1.18,1.66,1.66,0,0,1-.6.79,1.69,1.69,0,0,1-1,.29,1.57,1.57,0,0,1-1.3-.58,2.63,2.63,0,0,1-.48-1.56H80.12v2.06h-.47V25.19h.47v1.87h1.34a2.63,2.63,0,0,1,.25-1,1.76,1.76,0,0,1,2.55-.66,1.71,1.71,0,0,1,.59.79A3,3,0,0,1,85.05,27.35Zm-3.12,0a3.21,3.21,0,0,0,.13,1,1.31,1.31,0,0,0,.43.65,1.15,1.15,0,0,0,.76.24,1.1,1.1,0,0,0,1-.51,2.55,2.55,0,0,0,.31-1.35A2.49,2.49,0,0,0,84.26,26a1.09,1.09,0,0,0-1-.52,1.11,1.11,0,0,0-1,.52A2.49,2.49,0,0,0,81.93,27.35Zm9.88-2.16v3.94h.6V31H92V29.53H86.23V25.19h.46v3.93h2.1V25.19h.46v3.93h2.11V25.19Zm3-.08a1.48,1.48,0,0,1,1.09.36,1.56,1.56,0,0,1,.36,1.14v2.92H96l-.08-.74h0a2.08,2.08,0,0,1-.58.6,1.79,1.79,0,0,1-.94.22,1.5,1.5,0,0,1-1-.31,1.15,1.15,0,0,1-.36-.91,1.09,1.09,0,0,1,.53-1A3.12,3.12,0,0,1,95.05,27l.8,0v-.3a1.25,1.25,0,0,0-.27-.91,1,1,0,0,0-.75-.27,2.3,2.3,0,0,0-.64.09,4,4,0,0,0-.62.24l-.15-.37a4.42,4.42,0,0,1,.67-.25A3.23,3.23,0,0,1,94.85,25.11Zm.26,2.25a2.67,2.67,0,0,0-1.24.3.81.81,0,0,0-.4.73.76.76,0,0,0,.25.62,1.05,1.05,0,0,0,.69.21,1.39,1.39,0,0,0,1-.39,1.54,1.54,0,0,0,.39-1.07v-.43Zm2.57,2.17h-.55l1.29-1.86a1.46,1.46,0,0,1-.8-.37,1.14,1.14,0,0,1-.3-.84,1.16,1.16,0,0,1,.41-1,1.7,1.7,0,0,1,1.07-.31h1.82v4.34h-.47V27.72H98.91Zm.1-3.08q0,.87,1.11.87h1.26V25.59h-1.3a1.19,1.19,0,0,0-.81.23A.8.8,0,0,0,97.78,26.45Zm8.8-1.26h.53l-1.94,2.1,2.06,2.24h-.56l-2-2.21v2.21h-.47V25.19h.47v2.1Zm4.92,2.16a2.94,2.94,0,0,1-.23,1.19,1.65,1.65,0,0,1-.66.79,1.88,1.88,0,0,1-1.06.28,1.8,1.8,0,0,1-1-.28,1.77,1.77,0,0,1-.67-.78,2.86,2.86,0,0,1-.23-1.2,2.42,2.42,0,0,1,.52-1.65,2,2,0,0,1,2.49-.31,1.78,1.78,0,0,1,.65.78A2.89,2.89,0,0,1,111.5,27.35Zm-3.4,0a2.37,2.37,0,0,0,.35,1.35,1.27,1.27,0,0,0,1.11.51,1.23,1.23,0,0,0,1.11-.52,2.36,2.36,0,0,0,.35-1.34,2.85,2.85,0,0,0-.15-1,1.43,1.43,0,0,0-2.4-.4A2.2,2.2,0,0,0,108.1,27.35ZM117,25.19v4.34h-.42V26.48c0-.22,0-.45,0-.69h0L115,29.53h-.4l-1.52-3.75h0c0,.13,0,.25,0,.36s0,.23,0,.36v3h-.43V25.19h.63L114.83,29l1.54-3.76Zm4.82,0v4.34h-.47V25.59h-2.57v3.94h-.46V25.19Zm3-.08a1.48,1.48,0,0,1,1.09.36,1.56,1.56,0,0,1,.36,1.14v2.92h-.35l-.08-.74h0a1.85,1.85,0,0,1-.58.6,1.73,1.73,0,0,1-.93.22,1.5,1.5,0,0,1-1-.31,1.15,1.15,0,0,1-.36-.91,1.09,1.09,0,0,1,.53-1A3.09,3.09,0,0,1,125,27l.79,0v-.3a1.25,1.25,0,0,0-.26-.91,1,1,0,0,0-.75-.27,2.25,2.25,0,0,0-.64.09,3.61,3.61,0,0,0-.62.24l-.15-.37a4.42,4.42,0,0,1,.67-.25A3.17,3.17,0,0,1,124.79,25.11Zm.26,2.25a2.64,2.64,0,0,0-1.24.3.8.8,0,0,0-.4.73.78.78,0,0,0,.24.62,1.06,1.06,0,0,0,.7.21,1.39,1.39,0,0,0,1.05-.39,1.49,1.49,0,0,0,.38-1.07v-.43Zm3-2.17v1.88h2.66V25.19h.47v4.34h-.47V27.47h-2.66v2.06h-.46V25.19Zm5,3c0,.12,0,.26,0,.41s0,.29,0,.41l2.54-3.83h.57v4.34h-.44V26.09c0-.16,0-.29,0-.41l-2.54,3.85h-.57V25.19h.45Zm4.52,1.33h-.56l1.3-1.86a1.46,1.46,0,0,1-.81-.37,1.17,1.17,0,0,1-.29-.84,1.13,1.13,0,0,1,.41-1,1.67,1.67,0,0,1,1.06-.31h1.82v4.34h-.46V27.72h-1.25Zm.1-3.08c0,.58.36.87,1.1.87h1.27V25.59h-1.31a1.16,1.16,0,0,0-.8.23A.77.77,0,0,0,137.72,26.45Z"/></svg>