<svg xmlns="http://www.w3.org/2000/svg" viewBox="0 0 70 70"><circle cx="35" cy="35" r="35" style="fill:#e0e0ff"/><ellipse cx="35" cy="23.5" rx="12" ry="11.5" style="fill:#9d9dd8"/><path d="M58,61.46a21.88,21.88,0,0,0-1.75-8.59,22.45,22.45,0,0,0-5-7.29,22.93,22.93,0,0,0-7.46-4.87,23.5,23.5,0,0,0-17.6,0,22.93,22.93,0,0,0-7.46,4.87,22.45,22.45,0,0,0-5,7.29A21.88,21.88,0,0,0,12,61.46l2.53,2,2.53,1.57,2.76,1.57,2.76,1.12,3.22,1.13,3,.67,3,.45h6l3.68-.45,3.68-.9,2.76-1.12,2.76-1.12,2.76-1.58,2.3-1.57Z" style="fill:#9d9dd8"/></svg>