<svg xmlns="http://www.w3.org/2000/svg" viewBox="0 0 40 40"><path d="M20,40a4.29,4.29,0,0,1-3-1A8.52,8.52,0,0,1,15.49,37l-.23-.36a7.27,7.27,0,0,0-2-2.3,7,7,0,0,0-4.05-1,8.8,8.8,0,0,1-4.6-1.1,7.28,7.28,0,0,1-2.8-3.13C.55,26.65,0,23.16,0,17.78,0,9.88,1.07,5.84,3.82,3.4A12.5,12.5,0,0,1,9.93.72,53.43,53.43,0,0,1,20,0,55.37,55.37,0,0,1,30.07.69a12.59,12.59,0,0,1,6.11,2.64C38.93,5.76,40,9.81,40,17.78c0,5.45-.55,9-1.77,11.39a7.17,7.17,0,0,1-2.8,3.09,9,9,0,0,1-4.6,1.07,7,7,0,0,0-4,1.05,7.26,7.26,0,0,0-2,2.29l-.23.36A8.59,8.59,0,0,1,23,39,4.29,4.29,0,0,1,20,40ZM20,3a50.86,50.86,0,0,0-9.49.66,9.81,9.81,0,0,0-4.69,2C3.82,7.42,3,10.94,3,17.78c0,4.82.46,8,1.45,10a4.4,4.4,0,0,0,1.65,1.9,6,6,0,0,0,3.07.68,9.92,9.92,0,0,1,5.74,1.56,10.24,10.24,0,0,1,2.88,3.17l.21.32a7.41,7.41,0,0,0,1,1.35c.11.09.31.27,1,.27s.92-.17,1-.27A7,7,0,0,0,22,35.44l.24-.38a10.25,10.25,0,0,1,2.88-3.17,9.92,9.92,0,0,1,5.74-1.56,6.19,6.19,0,0,0,3.09-.66,4.26,4.26,0,0,0,1.63-1.85c1-2,1.45-5.15,1.45-10,0-6.91-.81-10.44-2.81-12.2a9.82,9.82,0,0,0-4.68-1.94A52.11,52.11,0,0,0,20,3Z"/><path d="M28.33,16.5H21.67a1.5,1.5,0,0,1,0-3h6.66a1.5,1.5,0,0,1,0,3Z"/><path d="M28.33,23.17H11.67a1.5,1.5,0,0,1,0-3H28.33a1.5,1.5,0,0,1,0,3Z"/></svg>